<svg xmlns="http://www.w3.org/2000/svg" xmlns:xlink="http://www.w3.org/1999/xlink" version="1.1" width="256" height="256" viewBox="0 0 256 256" xml:space="preserve">
<g style="stroke: none; stroke-width: 0; stroke-dasharray: none; stroke-linecap: butt; stroke-linejoin: miter; stroke-miterlimit: 10; fill: none; fill-rule: nonzero; opacity: 1;" transform="translate(1.4065934065934016 1.4065934065934016) scale(2.81 2.81)">
	<path d="M 87.851 6.29 L 83.71 2.15 C 82.324 0.763 80.48 0 78.521 0 c -1.961 0 -3.804 0.763 -5.19 2.15 l -6.181 6.181 L 22.822 52.658 c -0.074 0.074 -0.134 0.156 -0.194 0.238 c -0.016 0.022 -0.036 0.04 -0.052 0.063 c -0.087 0.13 -0.155 0.268 -0.208 0.411 c -0.004 0.011 -0.012 0.019 -0.015 0.03 l -6.486 18.178 c -0.26 0.728 -0.077 1.54 0.47 2.086 c 0.381 0.382 0.893 0.586 1.415 0.586 c 0.225 0 0.452 -0.038 0.671 -0.116 l 18.177 -6.485 c 0.014 -0.005 0.025 -0.014 0.038 -0.019 c 0.142 -0.054 0.279 -0.12 0.406 -0.206 c 0.017 -0.012 0.031 -0.027 0.048 -0.039 c 0.088 -0.063 0.174 -0.128 0.251 -0.206 l 44.328 -44.328 l 6.182 -6.181 C 90.712 13.808 90.712 9.152 87.851 6.29 z M 21.051 68.948 l 4.006 -11.226 l 3.61 3.611 l 3.61 3.611 L 21.051 68.948 z M 35.927 62.936 l -1.445 -1.445 l -7.418 -7.419 l 41.499 -41.499 l 8.863 8.863 L 35.927 62.936 z M 85.022 13.841 l -4.768 4.767 l -8.863 -8.863 l 4.767 -4.767 c 1.26 -1.263 3.46 -1.263 4.724 0 l 4.141 4.14 C 86.324 10.42 86.324 12.539 85.022 13.841 z" style="stroke: none; stroke-width: 1; stroke-dasharray: none; stroke-linecap: butt; stroke-linejoin: miter; stroke-miterlimit: 10; fill: rgb(0,0,0); fill-rule: nonzero; opacity: 1;" transform=" matrix(1 0 0 1 0 0) " stroke-linecap="round"/>
	<path d="M 79.388 45.667 c -1.104 0 -2 0.896 -2 2 v 34.804 c 0 1.946 -1.584 3.529 -3.53 3.529 H 7.53 C 5.583 86 4 84.417 4 82.471 V 16.142 c 0 -1.946 1.583 -3.53 3.53 -3.53 h 34.803 c 1.104 0 2 -0.896 2 -2 s -0.896 -2 -2 -2 H 7.53 C 3.378 8.612 0 11.99 0 16.142 v 66.329 C 0 86.622 3.378 90 7.53 90 h 66.328 c 4.152 0 7.53 -3.378 7.53 -7.529 V 47.667 C 81.388 46.562 80.492 45.667 79.388 45.667 z" style="stroke: none; stroke-width: 1; stroke-dasharray: none; stroke-linecap: butt; stroke-linejoin: miter; stroke-miterlimit: 10; fill: rgb(0,0,0); fill-rule: nonzero; opacity: 1;" transform=" matrix(1 0 0 1 0 0) " stroke-linecap="round"/>
</g>
</svg>